<svg width="512" height="512" viewBox="0 0 512 512" fill="none" xmlns="http://www.w3.org/2000/svg">
<path d="M191.094 202.054C191.094 196.22 195.819 191.49 201.648 191.49H421.615C427.444 191.49 432.169 196.22 432.169 202.054C432.169 207.889 427.444 212.619 421.615 212.619H201.648C195.819 212.619 191.094 207.889 191.094 202.054Z" fill="#8C8C8C"/>
<path fill-rule="evenodd" clip-rule="evenodd" d="M144.435 265.997C180.021 265.997 208.869 237.12 208.869 201.498C208.869 165.877 180.021 137 144.435 137C108.848 137 80 165.877 80 201.498C80 237.12 108.848 265.997 144.435 265.997ZM125.549 220.403C135.979 220.403 144.435 211.939 144.435 201.498C144.435 191.058 135.979 182.594 125.549 182.594C115.118 182.594 106.663 191.058 106.663 201.498C106.663 211.939 115.118 220.403 125.549 220.403Z" fill="#8C8C8C"/>
<path d="M371.067 202.61C364.931 202.61 359.958 207.589 359.958 213.731V243.756C359.958 249.898 364.931 254.876 371.067 254.876H371.219C373.786 254.876 375.511 251.885 375.511 249.316V239.308C375.511 233.166 380.485 228.187 386.62 228.187H392.175C398.311 228.187 403.284 233.166 403.284 239.308V249.316C403.284 251.885 405.009 254.876 407.576 254.876H407.728C413.864 254.876 418.838 249.898 418.838 243.756V213.731C418.838 207.589 413.864 202.61 407.728 202.61H371.067Z" fill="#8C8C8C"/>
<path d="M145.756 376L137.736 370.167L149.3 354.333L130.649 348.314L133.633 338.962L152.47 344.888V325.351H162.448V344.888L181.192 338.962L184.269 348.314L165.432 354.333L177.089 370.167L168.976 376L157.412 360.074L145.756 376Z" fill="#8C8C8C"/>
<path d="M211.506 376L203.486 370.167L215.05 354.333L196.399 348.314L199.383 338.962L218.22 344.888V325.351H228.198V344.888L246.942 338.962L250.019 348.314L231.182 354.333L242.839 370.167L234.726 376L223.163 360.074L211.506 376Z" fill="#8C8C8C"/>
<path d="M277.256 376L269.237 370.167L280.8 354.333L262.149 348.314L265.134 338.962L283.971 344.888V325.351H293.949V344.888L312.692 338.962L315.77 348.314L296.933 354.333L308.589 370.167L300.476 376L288.913 360.074L277.256 376Z" fill="#8C8C8C"/>
<path d="M343.007 376L334.987 370.167L346.55 354.333L327.9 348.314L330.884 338.962L349.721 344.888V325.351H359.699V344.888L378.443 338.962L381.52 348.314L362.683 354.333L374.339 370.167L366.226 376L354.663 360.074L343.007 376Z" fill="#8C8C8C"/>
</svg>
